<?xml version="1.0" encoding="UTF-8"?>
<svg width="100px" height="100px" viewBox="0 0 100 100" version="1.1" xmlns="http://www.w3.org/2000/svg" xmlns:xlink="http://www.w3.org/1999/xlink">
    <title>Bottle Icon</title>
    <g stroke="none" stroke-width="1" fill="none" fill-rule="evenodd">
        <g transform="translate(25, 10)">
            <!-- Bottle Neck -->
            <path d="M20,0 C17,0 15,2 15,5 L15,20 L25,20 L25,5 C25,2 23,0 20,0 Z" fill="#4CAF50"/>
            <!-- Bottle Body -->
            <path d="M10,20 L30,20 C35,20 40,25 40,30 L40,70 C40,75 35,80 30,80 L10,80 C5,80 0,75 0,70 L0,30 C0,25 5,20 10,20 Z" fill="#4CAF50" opacity="0.8"/>
            <!-- Bottle Cap -->
            <path d="M15,0 L25,0 L25,5 L15,5 Z" fill="#FFC107"/>
            <!-- Liquid Level -->
            <path d="M5,40 L35,40 L35,70 C35,72.5 32.5,75 30,75 L10,75 C7.5,75 5,72.5 5,70 L5,40 Z" fill="#8BC34A"/>
        </g>
    </g>
</svg>