<?xml version="1.0" encoding="UTF-8"?>
<svg width="100px" height="100px" viewBox="0 0 100 100" version="1.1" xmlns="http://www.w3.org/2000/svg" xmlns:xlink="http://www.w3.org/1999/xlink">
    <title>Community Icon</title>
    <g stroke="none" stroke-width="1" fill="none" fill-rule="evenodd">
        <g transform="translate(10, 10)">
            <!-- People -->
            <circle cx="20" cy="20" r="15" fill="#4CAF50"/>
            <path d="M10,35 L30,35 L35,70 L25,70 L20,50 L15,70 L5,70 L10,35 Z" fill="#4CAF50" opacity="0.8"/>
            
            <circle cx="60" cy="20" r="15" fill="#8BC34A"/>
            <path d="M50,35 L70,35 L75,70 L65,70 L60,50 L55,70 L45,70 L50,35 Z" fill="#8BC34A" opacity="0.8"/>
            
            <circle cx="40" cy="15" r="10" fill="#FFC107"/>
            <path d="M35,25 L45,25 L48,50 L42,50 L40,40 L38,50 L32,50 L35,25 Z" fill="#FFC107" opacity="0.8"/>
            
            <!-- Heart/Connection -->
            <path d="M30,60 C35,50 45,50 50,60 C55,50 65,50 70,60 C75,70 65,80 50,70 C35,80 25,70 30,60 Z" fill="#F44336" opacity="0.6"/>
        </g>
    </g>
</svg>