<?xml version="1.0" encoding="UTF-8"?>
<svg width="100px" height="100px" viewBox="0 0 100 100" version="1.1" xmlns="http://www.w3.org/2000/svg" xmlns:xlink="http://www.w3.org/1999/xlink">
    <title>Eco-Friendly Icon</title>
    <g stroke="none" stroke-width="1" fill="none" fill-rule="evenodd">
        <g transform="translate(10, 10)">
            <!-- Leaf -->
            <path d="M40,0 C60,0 80,20 80,40 C80,60 60,80 40,80 C20,80 0,60 0,40 C0,20 20,0 40,0 Z" fill="#4CAF50" opacity="0.2"/>
            <path d="M40,10 C55,10 70,25 70,40 C70,55 55,70 40,70 C25,70 10,55 10,40 C10,25 25,10 40,10 Z" fill="#4CAF50" opacity="0.4"/>
            <path d="M40,20 C50,20 60,30 60,40 C60,50 50,60 40,60 C30,60 20,50 20,40 C20,30 30,20 40,20 Z" fill="#4CAF50" opacity="0.6"/>
            <!-- Stem -->
            <path d="M40,60 L40,80" stroke="#4CAF50" stroke-width="5" stroke-linecap="round"/>
            <!-- Veins -->
            <path d="M40,20 L60,40" stroke="#4CAF50" stroke-width="3" stroke-linecap="round"/>
            <path d="M40,20 L20,40" stroke="#4CAF50" stroke-width="3" stroke-linecap="round"/>
            <path d="M40,20 L40,40" stroke="#4CAF50" stroke-width="3" stroke-linecap="round"/>
        </g>
    </g>
</svg>